HIERARCHY
ROOT Hips
{
	OFFSET 0.00000 0.00000 0.00000
	CHANNELS 6 Xposition Yposition Zposition Yrotation Zrotation Xrotation 
	JOINT Lumbar
	{
		OFFSET 0 0 0
		CHANNELS 3 Zrotation Xrotation Yrotation
		JOINT Neck
		{
			OFFSET 0.00 0.2701 0.00
			CHANNELS 3 Zrotation Xrotation Yrotation
			End Site
			{
				OFFSET 0.00 0.1379 0.00
			}
		}
		JOINT RightShoulder
		{
			OFFSET 0.0119 0.2289 0.1181
			CHANNELS 3 Zrotation Xrotation Yrotation
			JOINT RightElbow
			{
				OFFSET 0.00 -0.1475 0.00
				CHANNELS 2 Zrotation Yrotation
				JOINT RightWrist
				{
					OFFSET 0.00 -0.1605 0.00
					CHANNELS 2 Zrotation Xrotation
					End Site
					{
						OFFSET 0.0040 -0.1068 0.0006
					}
				}
			}
		}
		JOINT LeftShoulder
		{
			OFFSET 0.0119 0.2289 -0.1181
			CHANNELS 3 Zrotation Xrotation Yrotation
			JOINT LeftElbow
			{
				OFFSET 0.00 -0.1475 0.00
				CHANNELS 2 Zrotation Yrotation
				JOINT LeftWrist
				{
					OFFSET 0.00 -0.1605 0.00
					CHANNELS 2 Zrotation Xrotation
					End Site
					{
						OFFSET 0.0040 -0.1068 -0.0006
					}
				}
			}
		}
	}
	JOINT RightHip
	{
		OFFSET 0.0316 -0.0424 0.0458
		CHANNELS 3 Zrotation Xrotation Yrotation
		JOINT RightKnee
		{
			OFFSET 0.00 -0.2438 0.00
			CHANNELS 1 Zrotation
			JOINT RightAnkle
			{
				OFFSET 0.00 -0.2449 0.00
				CHANNELS 3 Zrotation Xrotation Yrotation
				End Site
				{
					OFFSET 0.1237 -0.0542 0.0051
				}
			}
		}
	}
	JOINT LeftHip
	{
		OFFSET 0.0316 -0.0424 -0.0458
		CHANNELS 3 Zrotation Xrotation Yrotation
		JOINT LeftKnee
		{
			OFFSET 0.00 -0.2438 0.00
			CHANNELS 1 Zrotation
			JOINT LeftAnkle
			{
				OFFSET 0.00 -0.2449 0.00
				CHANNELS 3 Zrotation Xrotation Yrotation
				End Site
				{
					OFFSET 0.1237 -0.0542 -0.0051
				}
			}
		}
	}
}
MOTION
Frames: 22
Frame Time: 0.02
-0.12416 -0.02221 -0.29966 12.58439 -27.32127 -4.80942 42.94159 1.01485 -1.13724 -5.8375 -0.35046 -0.83079 10.74479 -10.84785 64.17127 112.15015 84.21093 34.60528 -2.13651 -6.22626 8.19769 -63.86669 104.14478 -93.67365 26.18839 0.03298 43.2828 -1.96203 -5.66194 -20.17046 -7.00873 -4.52468 -3.04793 57.52096 12.8523 -9.49523 -33.22876 -14.84258 5.73394 4.21034
-0.12505 -0.02266 -0.29787 12.40185 -27.14436 -4.91997 42.88336 1.16654 -0.98056 -5.93586 -0.19252 -0.83079 10.6847 -10.74154 64.17126 112.00534 84.19596 34.69016 -2.20076 -6.38191 8.25792 -63.72202 104.15269 -94.20005 26.34081 0.27163 43.33266 -1.76248 -6.13841 -20.34587 -6.94248 -4.45019 -3.00154 57.41909 13.17845 -9.10329 -33.21161 -14.77698 5.71205 4.19221
-0.12562 -0.02327 -0.29631 12.17344 -26.90152 -5.15552 42.83112 1.39285 -0.82203 -6.06888 0.02114 -0.83079 10.58695 -10.61333 64.17126 111.80828 84.17716 34.80829 -2.27946 -6.62332 8.27737 -63.48317 104.11628 -94.88742 26.43985 0.68706 43.27776 -1.49524 -6.75791 -20.54384 -6.85441 -4.36292 -2.94595 57.40228 13.87036 -8.55172 -33.19857 -14.73189 5.66676 4.16126
-0.12633 -0.02379 -0.29466 11.97042 -26.6912 -5.32881 42.77739 1.57932 -0.66396 -6.18293 0.20663 -0.83079 10.50775 -10.49314 64.17126 111.63615 84.15868 34.90551 -2.35278 -6.81762 8.32081 -63.29508 104.10515 -95.47819 26.55966 1.0081 43.27228 -1.26214 -7.29771 -20.73046 -6.7783 -4.28339 -2.89584 57.34537 14.3801 -8.08834 -33.18641 -14.67999 5.63303 4.13688
-0.12705 -0.02436 -0.29299 11.74707 -26.46865 -5.52542 42.71832 1.79071 -0.50374 -6.31107 0.40534 -0.83079 10.42302 -10.38002 64.17125 111.45852 84.14555 35.02661 -2.42206 -7.04481 8.34342 -63.07509 104.07462 -96.16491 26.69437 1.38526 43.25707 -1.01472 -7.89369 -20.92113 -6.69428 -4.19612 -2.84051 57.29278 14.95136 -7.57212 -33.1654 -14.62074 5.59567 4.10975
-0.12768 -0.02488 -0.2914 11.55586 -26.2567 -5.70304 42.67203 1.96818 -0.34906 -6.41759 0.58903 -0.83079 10.34112 -10.2483 64.17125 111.28079 84.12084 35.10641 -2.50242 -7.22424 8.39786 -62.8984 104.07232 -96.69185 26.78577 1.68907 43.23787 -0.78133 -8.40874 -21.10851 -6.62129 -4.12181 -2.79378 57.2523 15.48328 -7.12346 -33.16261 -14.58045 5.56022 4.08517
-0.12816 -0.02519 -0.28991 11.46153 -26.08755 -5.79766 42.65726 2.03104 -0.20975 -6.45976 0.72092 -0.83079 10.27035 -10.05904 64.17125 111.10713 84.06215 35.06019 -2.61457 -7.25251 8.56324 -62.86607 104.16843 -96.72952 26.76422 1.74294 43.23558 -0.59999 -8.6669 -21.28657 -6.58383 -4.08606 -2.77288 57.22187 15.82078 -6.89437 -33.21083 -14.58714 5.53565 4.07068
-0.12856 -0.02545 -0.2885 11.40185 -25.93203 -5.86885 42.65554 2.05765 -0.07683 -6.47834 0.83504 -0.83079 10.20459 -9.8538 64.17125 110.93657 83.9925 34.97192 -2.73641 -7.22938 8.75975 -62.88021 104.29257 -96.60271 26.70165 1.71803 43.2328 -0.43565 -8.83912 -21.45968 -6.55818 -4.06382 -2.76095 57.20145 16.10627 -6.73799 -33.27655 -14.61183 5.51377 4.05916
-0.12899 -0.02573 -0.28708 11.32838 -25.7721 -5.95069 42.64932 2.10262 0.05843 -6.5051 0.95501 -0.83079 10.1404 -9.66368 64.17125 110.77024 83.92986 34.90559 -2.8506 -7.22928 8.93296 -62.87141 104.39726 -96.55734 26.66246 1.73232 43.22906 -0.26566 -9.05065 -21.63179 -6.52715 -4.03556 -2.74496 57.17828 16.41398 -6.55031 -33.33278 -14.62805 5.49069 4.04629
-0.12943 -0.02602 -0.28557 11.24486 -25.60218 -6.03676 42.63729 2.14231 0.19683 -6.54344 1.08632 -0.83079 10.05909 -9.44036 64.17125 110.57882 83.85859 34.82886 -2.97898 -7.23472 9.14233 -62.86617 104.5284 -96.48963 26.60298 1.73851 43.22657 -0.08463 -9.26644 -21.8185 -6.49532 -4.00627 -2.72854 57.15019 16.7402 -6.34983 -33.3957 -14.64623 5.46676 4.03299
-0.12983 -0.02628 -0.28425 11.19133 -25.45737 -6.10697 42.64038 2.18334 0.32633 -6.55207 1.18908 -0.83079 10.01458 -9.28177 64.17125 110.44039 83.80266 34.76287 -3.07998 -7.21383 9.28565 -62.86688 104.61212 -96.42689 26.57477 1.74041 43.22281 0.06859 -9.45053 -21.97322 -6.46834 -3.98263 -2.71534 57.13396 17.01088 -6.19544 -33.44877 -14.66437 5.44549 4.02145
-0.13014 -0.02652 -0.28345 11.21048 -25.37724 -6.13737 42.68187 2.237 0.4397 -6.48022 1.21677 -0.83079 10.07534 -9.31409 64.17125 110.45384 83.79236 34.74122 -3.10221 -7.14595 9.22709 -62.86282 104.55463 -96.42063 26.66064 1.75025 43.21558 0.14784 -9.57267 -22.04181 -6.45127 -3.97029 -2.70821 57.14466 17.13831 -6.15 -33.47018 -14.67726 5.43132 4.01427
-0.1304 -0.02673 -0.28285 11.25911 -25.32253 -6.15225 42.73806 2.29284 0.54314 -6.37988 1.21615 -0.83079 10.17226 -9.41079 64.17126 110.5197 83.79775 34.7309 -3.09666 -7.05118 9.10313 -62.86496 104.44935 -96.42369 26.77692 1.75753 43.20768 0.19955 -9.66431 -22.07811 -6.43889 -3.96342 -2.70417 57.16708 17.21013 -6.14956 -33.48102 -14.68955 5.41977 4.0088
-0.13068 -0.02695 -0.28215 11.29564 -25.25733 -6.17484 42.78768 2.3473 0.64647 -6.2952 1.22861 -0.83079 10.24963 -9.4726 64.17126 110.5576 83.79562 34.71224 -3.10423 -6.95876 9.01746 -62.87178 104.36831 -96.42013 26.86729 1.76472 43.2006 0.26449 -9.76627 -22.12843 -6.42487 -3.95478 -2.69916 57.18599 17.3075 -6.1293 -33.4969 -14.70244 5.40682 4.00246
-0.13096 -0.02718 -0.28146 11.32808 -25.18793 -6.1942 42.83758 2.40227 0.76867 -6.19833 1.23967 -0.83079 10.34026 -9.55719 64.17126 110.61269 83.79485 34.70535 -3.10992 -6.90334 8.89779 -62.85047 104.27732 -96.42135 27.00502 1.77447 43.19105 0.32606 -9.88037 -22.18132 -6.4092 -3.94363 -2.69264 57.19793 17.40278 -6.10775 -33.51269 -14.71444 5.39477 3.99656
-0.13123 -0.02739 -0.28081 11.37534 -25.13331 -6.21656 42.88987 2.45707 0.84984 -6.12031 1.24705 -0.83079 10.41185 -9.61035 64.17127 110.64482 83.79501 34.67751 -3.11297 -6.76878 8.83162 -62.88615 104.19568 -96.41649 27.05463 1.77943 43.18679 0.38805 -9.96294 -22.22131 -6.39791 -3.93876 -2.68986 57.22665 17.489 -6.09999 -33.52554 -14.72808 5.38155 3.99018
-0.13142 -0.02753 -0.28025 11.45852 -25.11213 -6.25358 42.94807 2.51176 0.81511 -6.10218 1.25185 -0.83079 10.42163 -9.55674 64.17127 110.59702 83.79497 34.58636 -3.1139 -6.39037 8.94128 -63.09949 104.14858 -96.39734 26.82973 1.77061 43.1951 0.4602 -9.96745 -22.23293 -6.39755 -3.95046 -2.69692 57.30198 17.57085 -6.10724 -33.53622 -14.74496 5.36351 3.98139
-0.13159 -0.02764 -0.27973 11.55505 -25.10516 -6.29379 43.00762 2.56618 0.74031 -6.10396 1.25388 -0.83079 10.41105 -9.47012 64.17127 110.52496 83.79521 34.47441 -3.11333 -5.93901 9.10477 -63.36599 104.1129 -96.37178 26.51941 1.75762 43.2092 0.5333 -9.94177 -22.23276 -6.40137 -3.96809 -2.70754 57.39323 17.64455 -6.12832 -33.54362 -14.76362 5.34436 3.97216
-0.13177 -0.02777 -0.27919 11.64382 -25.09229 -6.33089 43.06453 2.62034 0.68729 -6.09619 1.25683 -0.83079 10.41003 -9.40149 64.17127 110.46642 83.79463 34.37397 -3.11453 -5.54276 9.23536 -63.59321 104.07391 -96.34671 26.26441 1.74774 43.2221 0.60462 -9.92884 -22.23849 -6.40324 -3.9826 -2.71634 57.47493 17.71739 -6.15118 -33.55024 -14.7824 5.32636 3.96358
-0.13194 -0.0279 -0.27864 11.74068 -25.07772 -6.37434 43.13032 2.67629 0.61917 -6.08957 1.2602 -0.83079 10.409 -9.32258 64.17127 110.39924 83.79739 34.26534 -3.1104 -5.05462 9.39877 -63.88316 104.02564 -96.33168 25.94218 1.73273 43.22892 0.68097 -9.91738 -22.24103 -6.40553 -3.99919 -2.72615 57.56641 17.80696 -6.14333 -33.56605 -14.79753 5.3058 3.95326
-0.13214 -0.02801 -0.27812 11.82362 -25.07005 -6.40564 43.17798 2.72829 0.57271 -6.0856 1.26241 -0.83079 10.40264 -9.25627 64.17127 110.34352 83.79321 34.16852 -3.11707 -4.73868 9.50813 -64.05666 103.99966 -96.29466 25.73758 1.72728 43.24983 0.74707 -9.89799 -22.24758 -6.40783 -4.01266 -2.73459 57.64165 17.86119 -6.19999 -33.56214 -14.82036 5.29019 3.94634
-0.13242 -0.02809 -0.27768 11.86335 -25.07513 -6.40165 43.17323 2.77073 0.59951 -6.08474 1.26218 -0.83079 10.38672 -9.23382 64.17127 110.32589 83.7683 34.1109 -3.15662 -4.93554 9.44932 -63.88124 104.03564 -96.19388 25.89366 1.75092 43.30791 0.7879 -9.84747 -22.27033 -6.40959 -4.01703 -2.7392 57.6637 17.81401 -6.45005 -33.50387 -14.86692 5.28918 3.94957
